<svg width="757" height="121" viewBox="0 0 757 121" fill="none" xmlns="http://www.w3.org/2000/svg">
<path d="M0.545455 94V0.909088H50.5455V3.81818H3.45455V46H46.1818V48.9091H3.45455V94H0.545455ZM76.6132 95.4545C72.795 95.4545 69.2647 94.6667 66.0223 93.0909C62.8102 91.5152 60.2192 89.2121 58.2495 86.1818C56.3102 83.1515 55.3405 79.4545 55.3405 75.0909C55.3405 72.7273 55.7192 70.5152 56.4768 68.4545C57.2344 66.3636 58.5677 64.4697 60.4768 62.7727C62.3859 61.0758 65.0526 59.6212 68.4768 58.4091C71.9314 57.197 76.3405 56.2727 81.7041 55.6364C84.9162 55.2727 87.9465 54.8485 90.795 54.3636C93.6435 53.8788 95.9617 53.1515 97.7495 52.1818C99.5374 51.2121 100.431 49.8182 100.431 48V43.8182C100.431 38.4545 98.6283 34.1515 95.0223 30.9091C91.4162 27.6364 86.6132 26 80.6132 26C75.7041 26 71.4162 27.0909 67.7495 29.2727C64.0829 31.4242 61.5223 34.4545 60.0677 38.3636L57.3405 37.2727C58.4314 34.3636 60.1132 31.8485 62.3859 29.7273C64.6586 27.6061 67.3556 25.9697 70.4768 24.8182C73.598 23.6667 76.9768 23.0909 80.6132 23.0909C84.1586 23.0909 87.3253 23.6212 90.1132 24.6818C92.9314 25.7121 95.3253 27.1667 97.295 29.0455C99.2647 30.8939 100.765 33.0758 101.795 35.5909C102.825 38.1061 103.34 40.8485 103.34 43.8182V94H100.431V79.8182H100.068C98.6132 82.9697 96.7192 85.7273 94.3859 88.0909C92.0829 90.4242 89.4162 92.2424 86.3859 93.5455C83.3859 94.8182 80.1283 95.4545 76.6132 95.4545ZM76.6132 92.5455C81.0374 92.5455 85.0526 91.3636 88.6586 89C92.2647 86.6061 95.1283 83.2879 97.2495 79.0455C99.3708 74.7727 100.431 69.8182 100.431 64.1818V53.6364C99.5829 54.2727 98.5526 54.8333 97.3405 55.3182C96.1586 55.803 94.8102 56.2424 93.295 56.6364C91.8102 57 90.1889 57.3182 88.4314 57.5909C86.6738 57.8636 84.795 58.1212 82.795 58.3636C76.5526 59.0909 71.6435 60.197 68.0677 61.6818C64.492 63.1667 61.9617 65.0303 60.4768 67.2727C58.992 69.5152 58.2495 72.1212 58.2495 75.0909C58.2495 80.3636 60.0071 84.5909 63.5223 87.7727C67.0677 90.9545 71.4314 92.5455 76.6132 92.5455ZM117.238 47.0909V94H114.329V0.909088H117.238V35.2727H117.601C119.238 31.6364 121.92 28.7273 125.647 26.5455C129.404 24.3636 133.692 23.2727 138.51 23.2727C143.177 23.2727 147.298 24.2879 150.874 26.3182C154.45 28.3485 157.253 31.1515 159.283 34.7273C161.313 38.303 162.329 42.4242 162.329 47.0909V94H159.42V47.0909C159.42 40.9091 157.48 35.8788 153.601 32C149.723 28.1212 144.692 26.1818 138.51 26.1818C134.389 26.1818 130.723 27.0758 127.51 28.8636C124.329 30.6515 121.813 33.1212 119.965 36.2727C118.147 39.4242 117.238 43.0303 117.238 47.0909ZM190.453 95.4545C186.635 95.4545 183.105 94.6667 179.862 93.0909C176.65 91.5152 174.059 89.2121 172.09 86.1818C170.15 83.1515 169.18 79.4545 169.18 75.0909C169.18 72.7273 169.559 70.5152 170.317 68.4545C171.074 66.3636 172.408 64.4697 174.317 62.7727C176.226 61.0758 178.893 59.6212 182.317 58.4091C185.771 57.197 190.18 56.2727 195.544 55.6364C198.756 55.2727 201.787 54.8485 204.635 54.3636C207.483 53.8788 209.802 53.1515 211.59 52.1818C213.377 51.2121 214.271 49.8182 214.271 48V43.8182C214.271 38.4545 212.468 34.1515 208.862 30.9091C205.256 27.6364 200.453 26 194.453 26C189.544 26 185.256 27.0909 181.59 29.2727C177.923 31.4242 175.362 34.4545 173.908 38.3636L171.18 37.2727C172.271 34.3636 173.953 31.8485 176.226 29.7273C178.499 27.6061 181.196 25.9697 184.317 24.8182C187.438 23.6667 190.817 23.0909 194.453 23.0909C197.999 23.0909 201.165 23.6212 203.953 24.6818C206.771 25.7121 209.165 27.1667 211.135 29.0455C213.105 30.8939 214.605 33.0758 215.635 35.5909C216.665 38.1061 217.18 40.8485 217.18 43.8182V94H214.271V79.8182H213.908C212.453 82.9697 210.559 85.7273 208.226 88.0909C205.923 90.4242 203.256 92.2424 200.226 93.5455C197.226 94.8182 193.968 95.4545 190.453 95.4545ZM190.453 92.5455C194.877 92.5455 198.893 91.3636 202.499 89C206.105 86.6061 208.968 83.2879 211.09 79.0455C213.211 74.7727 214.271 69.8182 214.271 64.1818V53.6364C213.423 54.2727 212.393 54.8333 211.18 55.3182C209.999 55.803 208.65 56.2424 207.135 56.6364C205.65 57 204.029 57.3182 202.271 57.5909C200.514 57.8636 198.635 58.1212 196.635 58.3636C190.393 59.0909 185.483 60.197 181.908 61.6818C178.332 63.1667 175.802 65.0303 174.317 67.2727C172.832 69.5152 172.09 72.1212 172.09 75.0909C172.09 80.3636 173.847 84.5909 177.362 87.7727C180.908 90.9545 185.271 92.5455 190.453 92.5455ZM250.896 95.4545C245.381 95.4545 240.608 93.8788 236.578 90.7273C232.547 87.5455 229.441 83.2273 227.26 77.7727C225.078 72.3182 223.987 66.1515 223.987 59.2727C223.987 52.4242 225.093 46.2727 227.305 40.8182C229.517 35.3636 232.638 31.0455 236.669 27.8636C240.699 24.6818 245.441 23.0909 250.896 23.0909C254.593 23.0909 258.002 23.8636 261.123 25.4091C264.244 26.9242 266.957 29.1061 269.26 31.9545C271.563 34.7727 273.32 38.1212 274.532 42H274.896V0.909088H277.805V94H274.896V76.5455H274.532C273.26 80.3939 271.487 83.7424 269.214 86.5909C266.941 89.4091 264.244 91.5909 261.123 93.1364C258.032 94.6818 254.623 95.4545 250.896 95.4545ZM250.896 92.5455C255.835 92.5455 260.093 91.0909 263.669 88.1818C267.275 85.2424 270.047 81.2727 271.987 76.2727C273.926 71.2424 274.896 65.5758 274.896 59.2727C274.896 52.9697 273.911 47.3182 271.941 42.3182C270.002 37.2879 267.229 33.3182 263.623 30.4091C260.047 27.4697 255.805 26 250.896 26C245.987 26 241.729 27.4697 238.123 30.4091C234.547 33.3182 231.775 37.2879 229.805 42.3182C227.866 47.3182 226.896 52.9697 226.896 59.2727C226.896 65.5758 227.866 71.2424 229.805 76.2727C231.744 81.2727 234.502 85.2424 238.078 88.1818C241.684 91.0909 245.957 92.5455 250.896 92.5455ZM313.978 94V0.909088H345.432C352.735 0.909088 358.705 2.22727 363.341 4.86363C368.008 7.4697 371.463 11 373.705 15.4545C375.947 19.9091 377.069 24.8788 377.069 30.3636C377.069 35.8485 375.947 40.8333 373.705 45.3182C371.493 49.803 368.069 53.3788 363.432 56.0455C358.796 58.6818 352.857 60 345.614 60H323.069V50H345.25C350.25 50 354.266 49.1364 357.296 47.4091C360.326 45.6818 362.523 43.3485 363.887 40.4091C365.281 37.4394 365.978 34.0909 365.978 30.3636C365.978 26.6364 365.281 23.303 363.887 20.3636C362.523 17.4242 360.311 15.1212 357.25 13.4545C354.19 11.7576 350.129 10.9091 345.069 10.9091H325.25V94H313.978ZM407.919 95.6364C403.494 95.6364 399.479 94.803 395.873 93.1364C392.267 91.4394 389.403 89 387.282 85.8182C385.161 82.6061 384.1 78.7273 384.1 74.1818C384.1 70.1818 384.888 66.9394 386.464 64.4545C388.04 61.9394 390.146 59.9697 392.782 58.5455C395.419 57.1212 398.328 56.0606 401.51 55.3636C404.722 54.6364 407.949 54.0606 411.191 53.6364C415.434 53.0909 418.873 52.6818 421.51 52.4091C424.176 52.1061 426.116 51.6061 427.328 50.9091C428.57 50.2121 429.191 49 429.191 47.2727V46.9091C429.191 42.4242 427.964 38.9394 425.51 36.4545C423.085 33.9697 419.403 32.7273 414.464 32.7273C409.343 32.7273 405.328 33.8485 402.419 36.0909C399.51 38.3333 397.464 40.7273 396.282 43.2727L386.1 39.6364C387.919 35.3939 390.343 32.0909 393.373 29.7273C396.434 27.3333 399.767 25.6667 403.373 24.7273C407.01 23.7576 410.585 23.2727 414.1 23.2727C416.343 23.2727 418.919 23.5455 421.828 24.0909C424.767 24.6061 427.6 25.6818 430.328 27.3182C433.085 28.9545 435.373 31.4242 437.191 34.7273C439.01 38.0303 439.919 42.4545 439.919 48V94H429.191V84.5455H428.646C427.919 86.0606 426.707 87.6818 425.01 89.4091C423.313 91.1364 421.055 92.6061 418.237 93.8182C415.419 95.0303 411.979 95.6364 407.919 95.6364ZM409.555 86C413.797 86 417.373 85.1667 420.282 83.5C423.222 81.8333 425.434 79.6818 426.919 77.0455C428.434 74.4091 429.191 71.6364 429.191 68.7273V58.9091C428.737 59.4545 427.737 59.9545 426.191 60.4091C424.676 60.8333 422.919 61.2121 420.919 61.5455C418.949 61.8485 417.025 62.1212 415.146 62.3636C413.297 62.5758 411.797 62.7576 410.646 62.9091C407.858 63.2727 405.252 63.8636 402.828 64.6818C400.434 65.4697 398.494 66.6667 397.01 68.2727C395.555 69.8485 394.828 72 394.828 74.7273C394.828 78.4545 396.207 81.2727 398.964 83.1818C401.752 85.0606 405.282 86 409.555 86ZM483.462 24.1818V33.2727H447.28V24.1818H483.462ZM457.825 7.45454H468.553V74C468.553 77.0303 468.992 79.303 469.871 80.8182C470.78 82.303 471.932 83.303 473.325 83.8182C474.75 84.303 476.25 84.5455 477.825 84.5455C479.007 84.5455 479.977 84.4848 480.735 84.3636C481.492 84.2121 482.098 84.0909 482.553 84L484.735 93.6364C484.007 93.9091 482.992 94.1818 481.689 94.4545C480.386 94.7576 478.735 94.9091 476.735 94.9091C473.704 94.9091 470.735 94.2576 467.825 92.9545C464.947 91.6515 462.553 89.6667 460.644 87C458.765 84.3333 457.825 80.9697 457.825 76.9091V7.45454ZM509.016 94L487.744 24.1818H499.016L514.107 77.6364H514.835L529.744 24.1818H541.198L555.925 77.4545H556.653L571.744 24.1818H583.016L561.744 94H551.198L535.925 40.3636H534.835L519.562 94H509.016ZM611.344 95.6364C606.919 95.6364 602.904 94.803 599.298 93.1364C595.692 91.4394 592.828 89 590.707 85.8182C588.586 82.6061 587.525 78.7273 587.525 74.1818C587.525 70.1818 588.313 66.9394 589.889 64.4545C591.465 61.9394 593.571 59.9697 596.207 58.5455C598.844 57.1212 601.753 56.0606 604.935 55.3636C608.147 54.6364 611.374 54.0606 614.616 53.6364C618.859 53.0909 622.298 52.6818 624.935 52.4091C627.601 52.1061 629.541 51.6061 630.753 50.9091C631.995 50.2121 632.616 49 632.616 47.2727V46.9091C632.616 42.4242 631.389 38.9394 628.935 36.4545C626.51 33.9697 622.828 32.7273 617.889 32.7273C612.768 32.7273 608.753 33.8485 605.844 36.0909C602.935 38.3333 600.889 40.7273 599.707 43.2727L589.525 39.6364C591.344 35.3939 593.768 32.0909 596.798 29.7273C599.859 27.3333 603.192 25.6667 606.798 24.7273C610.435 23.7576 614.01 23.2727 617.525 23.2727C619.768 23.2727 622.344 23.5455 625.253 24.0909C628.192 24.6061 631.025 25.6818 633.753 27.3182C636.51 28.9545 638.798 31.4242 640.616 34.7273C642.435 38.0303 643.344 42.4545 643.344 48V94H632.616V84.5455H632.071C631.344 86.0606 630.131 87.6818 628.435 89.4091C626.738 91.1364 624.48 92.6061 621.662 93.8182C618.844 95.0303 615.404 95.6364 611.344 95.6364ZM612.98 86C617.222 86 620.798 85.1667 623.707 83.5C626.647 81.8333 628.859 79.6818 630.344 77.0455C631.859 74.4091 632.616 71.6364 632.616 68.7273V58.9091C632.162 59.4545 631.162 59.9545 629.616 60.4091C628.101 60.8333 626.344 61.2121 624.344 61.5455C622.374 61.8485 620.45 62.1212 618.571 62.3636C616.722 62.5758 615.222 62.7576 614.071 62.9091C611.283 63.2727 608.677 63.8636 606.253 64.6818C603.859 65.4697 601.919 66.6667 600.435 68.2727C598.98 69.8485 598.253 72 598.253 74.7273C598.253 78.4545 599.631 81.2727 602.389 83.1818C605.177 85.0606 608.707 86 612.98 86ZM656.523 94V24.1818H666.887V34.7273H667.614C668.887 31.2727 671.19 28.4697 674.523 26.3182C677.857 24.1667 681.614 23.0909 685.796 23.0909C686.584 23.0909 687.569 23.1061 688.75 23.1364C689.932 23.1667 690.826 23.2121 691.432 23.2727V34.1818C691.069 34.0909 690.235 33.9545 688.932 33.7727C687.66 33.5606 686.311 33.4545 684.887 33.4545C681.493 33.4545 678.463 34.1667 675.796 35.5909C673.16 36.9848 671.069 38.9242 669.523 41.4091C668.008 43.8636 667.25 46.6667 667.25 49.8182V94H656.523ZM706.782 120.182C704.964 120.182 703.343 120.03 701.919 119.727C700.494 119.455 699.51 119.182 698.964 118.909L701.691 109.455C704.297 110.121 706.6 110.364 708.6 110.182C710.6 110 712.373 109.106 713.919 107.5C715.494 105.924 716.934 103.364 718.237 99.8182L720.237 94.3636L694.419 24.1818H706.055L725.328 79.8182H726.055L745.328 24.1818H756.964L727.328 104.182C725.994 107.788 724.343 110.773 722.373 113.136C720.403 115.53 718.116 117.303 715.51 118.455C712.934 119.606 710.025 120.182 706.782 120.182Z" fill="white"/>
</svg>
